<svg id="Layer_1" data-name="Layer 1" xmlns="http://www.w3.org/2000/svg" viewBox="0 0 20 20"><defs><style>.cls-1{fill:#fff;}</style></defs><title>Tick-box</title><path class="cls-1" d="M15,7.08,12.91,5a1.54,1.54,0,0,0-1-.4H5.29a.71.71,0,0,0-.71.71V12a1.54,1.54,0,0,0,.41,1L7.09,15a1.61,1.61,0,0,0,1,.39h6.65a.71.71,0,0,0,.71-.71V8A1.54,1.54,0,0,0,15,7.08Z"/><path class="cls-1" d="M20,6.33a2.78,2.78,0,0,0-.7-1.68l-4-4A2.72,2.72,0,0,0,13.66,0H1.13A1.14,1.14,0,0,0,0,1.13V13.67a2.78,2.78,0,0,0,.7,1.67l4,4A2.72,2.72,0,0,0,6.34,20H18.87A1.14,1.14,0,0,0,20,18.86Zm-.48,12.53a.65.65,0,0,1-.65.65H6.35A2.23,2.23,0,0,1,5,19L1.05,15a2.22,2.22,0,0,1-.57-1.36V1.13A.65.65,0,0,1,1.13.48H13.64A2.21,2.21,0,0,1,15,1L19,5a2.27,2.27,0,0,1,.57,1.36Z"/></svg>